<?xml version="1.0" standalone="yes"?>
<svg xmlns="http://www.w3.org/2000/svg" width="555" height="265">
<!-- <path style="fill:#41302a; stroke:none;" d="M0 0L0 265L555 265L555 0L0 0z"/> -->
<path style="fill:#cc5e2a; stroke:none;" d="M203 20L203 22C240.293 22 277.733 23.2308 315 24L315 26C311.397 26.3967 308.495 28.4083 304.961 28.8673C289.64 30.8567 273.44 28.3632 258 29.0394C226.107 30.4359 193.936 32 162 32C166.555 33.9114 172.116 32.8255 177 33.0394C187.026 33.4784 196.921 34 207 34L304 34C303.276 37.0396 303.026 39.8783 303 43L160 43C163.737 44.568 167.986 43.9163 172 44.0147C178.916 44.1841 186.084 44.6159 193 45.0895C219.281 46.8892 245.752 45.9286 272 48C259.977 57.7286 248.305 55.1099 234 56.0895C203.523 58.1766 172.578 58 142 58L142 60C157.336 60.6585 172.664 62.2891 188 62.9606C195.653 63.2958 203.352 62.6173 211 63.0432C214.436 63.2346 217.593 64.579 221 64.8958C227.573 65.507 234.4 65 241 65C235.057 75.6961 223.141 73.0928 213 74.4244C184.442 78.1741 154.342 70.7383 126 76C129.797 78.2747 133.714 77.7943 138 78.0895C145.052 78.5751 151.905 79 159 79C180.019 79 200.991 81.9861 222 82C220.313 84.3693 218.348 87.5826 215.737 89.0123C213.171 90.4173 209.816 89.9987 207 90L188 90L100 90C104.276 92.2735 109.285 91.9908 114 92.7539C125.006 94.5351 136.183 95.5273 147 98C130.565 103.197 112.243 96.199 96 101C101.397 103.835 107.074 104.108 113 105.08C123.584 106.816 134.317 108.157 145 109C128.546 113.863 109.471 108.131 93 113L93 115C99.7579 117.137 106.985 117.467 114 118.169C123.332 119.103 132.629 120.598 142 121C135.352 124.199 127.234 123 120 123C108.299 123 96.723 124 85 124C89.063 126.776 95.1602 126.406 100 126.95C110.789 128.161 121.642 128.573 132.09 131.157C136.834 132.33 141.249 131.485 145 135C128.021 135 111.037 136 94 136C88.6359 136 79.2364 134.008 76 139C90.3873 139.618 103.833 145.873 118 147C113.36 149.233 108.991 148.697 104 149.285C92.7179 150.617 81.3664 151 70 151C72.137 154.037 75.4689 154.343 79 155.115C86.7736 156.814 94.2773 157.895 102 160C95.1938 163.924 86.6579 164.067 79 165.114C75.5829 165.582 72.4673 166.78 69 167C73.6728 170.595 80.3529 169.876 86 170.015C91.03 170.138 95.9431 170.997 101 171C97.5793 173.975 93.3485 174.145 89 175.001C81.6403 176.449 74.4997 178.343 67 179C61.8776 179.449 53.9708 179.365 51 184C59.1205 184.641 67.0202 186.431 75 187.741C79.7356 188.518 82.9648 187.989 87 191C79.8027 192.718 72.2793 193.087 65 194.46C59.2613 195.542 53.8686 197.732 48 198C50.4949 201.277 54.1391 200.851 58 201.039C64.3315 201.347 70.6906 202.219 77 202.83C80.1978 203.14 84.8594 202.364 86.9722 205.434C89.0992 208.524 88 214.42 88 218L43 219C52.9838 223.798 67.1368 222.666 78 225.112C81.2827 225.851 87.9718 225.101 89.9136 228.429C93.6338 234.805 80.7604 233.947 78 234.015C62.9665 234.383 48.109 236 33 236L33 238C50.8906 238 68.1265 241.915 86 242.001C92.9366 242.034 101.318 242.619 104 250C82.5898 252.706 60.5805 253 39 253C45.5539 258.212 57.0481 256 65 256L129 256C123.447 250.981 115.698 248.783 110.129 243.557C99.4831 233.567 95.9552 221.16 96.0008 207C96.0246 199.59 97.416 191.263 103 186C103 202.005 102.826 221.949 116.96 232.874C122.431 237.103 129.167 241.166 136 242.61C162.081 248.123 195.338 228.152 196 200C191.227 200.205 186.792 201.179 182.039 200.026C173.31 197.908 164.096 191.11 156 187.087C151.12 184.662 141.635 177.957 136.04 179.796C126.286 183.003 128 200.186 128 208C120.814 201.359 125.578 192.243 126 184C116.994 186.909 119 202.487 119 210L117 210C116.046 202.171 114.015 195.053 115.465 187C116.64 180.467 120.317 175.176 122 169C119.602 167.973 117.584 167.322 115 167C115.06 161.599 116.914 157.873 119 153C134.672 160.844 149.49 170.092 165 178.29C171.625 181.792 179.611 183.699 183 191C186.585 188.866 187.218 185.373 189.688 182.184C192.04 179.147 194.834 177.792 196 174C188.875 171.637 183.816 165.652 177.561 161.685C172.605 158.542 167.076 157.322 164 152C167.836 152 172.085 151.504 175.829 152.46C179.827 153.481 182.752 155.717 187 156C184.758 149.803 176.226 147.702 172 143C179.876 143 185.923 144.267 192.961 148.005C196.034 149.637 199.485 153.76 202.989 154.093C207.415 154.514 211.861 147.58 213 144C205.665 140.619 199.328 135.09 192 131.552C184.402 127.885 176.729 124.883 169 121.546C164.797 119.732 160.601 118.762 157.144 115.532C153.608 112.228 151.548 107.084 149 103C174.526 108.258 199.152 119.502 225 123C221.746 118.561 215.413 117.713 210.576 115.584C198.553 110.294 186.364 106.501 174 102.004C168.337 99.944 162.301 99.5289 158 95C171.031 95 184.05 94.7652 196.91 97.2562C202.209 98.2824 208.596 100.032 213.715 101.728C216.871 102.773 219.676 104.956 223 105.496C226.631 106.086 230.403 104.53 234 104.171C238.944 103.676 244.036 104 249 104L249 102C244.509 101.895 240.428 100.441 236 100L236 98C246.487 98 256.572 99.8218 267 99C264.325 102.148 262.261 105.05 261 109C265.496 107.112 269.197 104.214 274 103L273 107L282 107L282 111C289.373 108.891 289.283 101.033 283.941 96.3434C276.281 89.6188 267.242 89.2004 258 87C263.291 79.1723 268.942 73.2474 278 70C276.93 75.7637 276.678 80.5209 279 86C280.878 82.7489 282.468 79.845 285 77L285 87C288.035 84.9556 290.146 81.2222 294.001 80.4923C297.427 79.8435 299.849 82.4613 303 83.1312C310.541 84.7341 328.408 83.2472 330 93C334.588 89.8657 340.253 82.8181 346.015 82.3318C350.796 81.9282 361.477 87.697 357.802 93.6829C353.585 100.55 339.679 91.9408 338 102C346.226 103.527 354.661 103 363 103C358.077 108.085 349.593 107.266 343 108.463C330.771 110.684 318.613 115.194 307 119.47C301.444 121.516 296.032 122.384 292 127L365 127C360.171 132.797 348.219 131.808 341 131.985C319.612 132.509 298.39 133.749 277 134.004C269.213 134.097 257.062 138.19 251 132C250.324 134.631 250.611 136.71 249 139C251.022 139.269 252.043 138.808 254 138C257.981 142.556 272.167 140 278 140L346 140C342.067 148.446 332.75 145.559 325 146.09C304.839 147.47 284.213 148 264 148C265.639 155.513 275.91 153 282 153L336 153L335 160L273 161C274.655 165.987 279.46 165 284 165L316 165C319.071 165 329.896 163.805 328.248 169.791C327.045 174.163 319.309 173 316 173L290 173C285.995 173.002 282.334 172.4 280 176L326 176L324 187L284 187L284 190L323 190L323 196L300 197L300 199L322 199L322 205C324.789 201.456 324.375 197.223 325.846 193.09C328.529 185.546 331.801 176.925 335.838 170C346.717 151.338 365.375 136.817 387 133.439C397.008 131.876 407.882 133 418 133C416.81 136.098 413.54 139.547 413.643 142.95C413.718 145.453 415.873 147.862 417 150C412.858 149.587 409.102 147.905 405 147.301C399.793 146.534 394.962 148.046 391 144L383 144C386.381 161.189 398.853 176.267 399 194C390.319 193.344 389.834 186.001 386.545 179.424C385.444 177.223 384.621 173.468 381.853 172.828C376.193 171.519 371.048 179.841 369.206 184C362.346 199.489 368.946 210.442 376 224C360.422 217.87 353.955 193.899 362.22 180C364.454 176.242 366.867 172.204 370.093 169.213C372.337 167.133 376.176 165.784 377.378 162.802C378.427 160.2 376.862 157.415 376 155C364.844 156.511 359.163 163.509 354.339 173C352.353 176.907 349.809 180.718 348.708 185C346.023 195.445 349.041 208.288 353.093 217.999C357.73 229.112 368.068 235.793 379 239.388C398.24 245.715 418.488 242.704 433.032 227.714C440.41 220.108 443.949 209.409 443.999 199C444.055 187.486 440.809 177.363 436 167C459.373 184.929 457.033 217.087 439.544 237.91C434.136 244.35 424.232 247.935 420 255C442.083 255 469.266 253.889 485.867 236.829C489.407 233.192 490.981 228.356 493.397 224C507.503 198.575 509.202 159.811 487.544 137.261C472.758 121.865 450.504 117 430 117C432.14 109.998 440.94 106.23 445.572 100.7C452.68 92.2127 456.614 77.0615 455.91 66C454.124 37.9441 433.699 18.1498 406 15.1736C397.984 14.3123 389.965 15.3651 382 15.9105C370.811 16.6767 359.193 16.7111 348 16.9853C319.309 17.6882 290.683 17.312 262 18.0147C242.321 18.4968 222.739 20 203 20z"/>
<path style="fill:#f1e5d2; stroke:none;" d="M340 63C331.215 59.6691 325.271 51.8562 317 48C319.12 55.5522 327.003 61.1549 332 67C324.273 64.4977 320.047 58.2864 313 55C313.65 57.86 314.807 60.3205 316 63C308.93 64.3126 298.023 64.097 295 72C298.871 73.6796 303.173 76.6606 307.17 77.6867C311.712 78.853 317.327 78 322 78L322 69C326.854 70.9383 331.66 74.4316 337 74.8519C352.748 76.0914 351 55.9912 351 46C346.875 44.001 344.095 40.2496 339.961 38.1852C334.295 35.356 324.753 36.2642 327.593 45C329.752 51.6372 336.525 56.9591 340 63M365 79C367.237 85.4568 376.465 87.1712 381.715 90.7145C388.872 95.5455 396.811 101.892 402.83 108.09C407.163 112.55 410.522 119.005 416 122C415.179 106.179 400.784 93.4176 389.003 84.7114C384.999 81.7527 381.077 77.592 375.999 76.5386C372.234 75.7573 368.532 77.9925 365 79z"/>
<path style="fill:#cc5e2a; stroke:none;" d="M222 146C232.265 138.445 240.355 122 254 120C250.998 116.996 246.781 121.285 244 123.295C235.686 129.305 227.455 137.279 222 146z"/>
<path style="fill:#f1e5d2; stroke:none;" d="M211 169C217.022 169 223.094 168.647 229 170.039C234.165 171.257 238.866 173.839 244 175C241.676 167.425 232.618 165.601 227 161C232.651 161.001 237.495 162.068 243 163C240.832 155.462 232.819 155.141 226 155C226.853 148.588 234.844 135.939 241.999 135.161C245.165 134.817 248.275 137.741 251 139C250.794 135.232 247.817 131.471 248.011 128C248.184 124.898 251.699 121.799 253 119C238.076 124.741 224.2 141.27 216.833 155.039C214.344 159.693 211.796 163.707 211 169z"/>
<path style="fill:#cc5e2a; stroke:none;" d="M251 122L252 123L251 122M250 123L251 124L250 123M249 124L250 125L249 124M248 125L249 126L248 125M247 126L248 127L247 126M246.333 127.667C246.278 127.722 246.222 128.778 246.667 128.333C246.722 128.278 246.778 127.222 246.333 127.667M239 135C240.659 135.406 241.242 135.309 243 135C241.191 134.426 240.931 134.535 239 135M244.667 135.333C244.222 135.778 245.278 135.722 245.333 135.667C245.778 135.222 244.722 135.278 244.667 135.333M238 136L239 137L238 136M246 136L247 137L246 136M237 137L238 138L237 137M247.667 137.333C247.222 137.778 248.278 137.722 248.333 137.667C248.778 137.222 247.722 137.278 247.667 137.333M236 138L237 139L236 138M235 139L236 140L235 139M234 140L235 141L234 140M226 155L230 155C228.752 154.315 228.452 154.251 227 154C228.67 149.594 231.538 145.989 234 142C228.889 144.612 226.378 149.36 226 155z"/>
<path style="fill:#f1e5d2; stroke:none;" d="M188 176C180.129 172.954 172.555 167.249 165.17 163.029C159.977 160.061 155.175 156.518 149.996 153.579C145.243 150.883 138.575 145.744 133.005 145.407C130.691 145.268 126.028 147.317 128.086 150.313C129.106 151.797 131.35 152.246 132.835 153.092C136.623 155.25 139.995 157.289 144 159.09C153.513 163.37 161.563 170.458 171 174.765C176.002 177.047 186.43 185.404 188 176z"/>
<path style="fill:#cc5e2a; stroke:none;" d="M220 148C219.014 149.479 219 149.203 219 151C220.289 149.557 220.401 149.766 220 148M217 153C215.152 155.618 213.904 157.927 213 161C215.358 158.705 217.317 156.364 217 153M249 154C252.349 162.22 254.62 170.845 257.827 179.17C258.998 182.209 258.787 186.885 261.653 188.972C263.84 190.565 267.457 189.998 270 190C268.616 181.242 263.582 172.622 259.285 165C256.74 160.486 254.143 155.658 249 154M232 155C233.248 155.685 233.548 155.749 235 156C233.752 155.315 233.452 155.251 232 155M242 159L243 160L242 159z"/>
<path style="fill:#f1e5d2; stroke:none;" d="M395 159C395.925 167.97 400.796 167.026 408 169.105C412.355 170.362 417.87 172.884 421.331 175.85C432.274 185.23 429 195.757 428 208C435.062 203.566 434.924 190.133 432.822 183C431.754 179.378 431.043 175.323 428.856 172.174C421.159 161.09 407.417 159.008 395 159z"/>
<path style="fill:#cc5e2a; stroke:none;" d="M243 160C242.101 162.124 242.124 162.101 240 163C241.751 164.255 242.857 164.614 245 165C244.697 162.706 244.422 161.788 243 160M212.333 161.667C212.278 161.722 212.222 162.778 212.667 162.333C212.722 162.278 212.778 161.222 212.333 161.667M227 161C228.45 162.608 229.051 163.064 231 164C229.703 162.08 229.209 161.684 227 161M235 161C236.248 161.685 236.548 161.749 238 162C236.752 161.315 236.452 161.251 235 161M238.667 162.333C238.222 162.778 239.278 162.722 239.333 162.667C239.778 162.222 238.722 162.278 238.667 162.333M211 163L211 166C211.696 164.446 211.696 164.554 211 163M231.667 164.333C231.222 164.778 232.278 164.722 232.333 164.667C232.778 164.222 231.722 164.278 231.667 164.333M233.667 165.333C233.222 165.778 234.278 165.722 234.333 165.667C234.778 165.222 233.722 165.278 233.667 165.333M210 166L210 170L232 171C224.991 167.632 215.789 171.527 210 166M238.667 168.333C238.222 168.778 239.278 168.722 239.333 168.667C239.778 168.222 238.722 168.278 238.667 168.333M240 169L241 170L240 169M241 170L242 171L241 170M232.667 171.333C232.222 171.778 233.278 171.722 233.333 171.667C233.778 171.222 232.722 171.278 232.667 171.333M236 172C237.543 173.267 238.048 173.489 240 174C238.542 172.919 237.752 172.564 236 172M244 173C242.777 174.195 242.58 174.316 241 175C242.458 176.081 243.248 176.436 245 177C244.826 175.315 244.683 174.506 244 173M240 174L241 175L240 174z"/>
<path style="fill:#f1e5d2; stroke:none;" d="M409 191C407.326 200.278 397.766 209.466 388.059 203.142C384.058 200.536 384.618 195.531 380 194C380.014 198.963 380.128 203.874 383.558 207.856C389.356 214.587 401.973 212.869 407.521 206.812C411.787 202.154 411.996 196.966 412 191L409 191M142 201C144.312 215.973 166.466 212.769 168 199C165.921 198.358 163.382 197.106 161.168 197.732C157.562 198.753 155.894 202.892 152 203.638C148.485 204.312 145.264 201.844 142 201M174 219C179.405 216.342 181.971 210.772 183 205C176.361 206.081 175.196 213.194 174 219z"/>
<path style="fill:#cc5e2a; stroke:none;" d="M302 209C307.715 211.398 315.831 210 322 210L322 208L302 209M207 213C200.054 231.353 186.641 245.733 169 254C174.707 256.395 182.846 255 189 255L230 255C278.672 255 327.41 254.402 376 254C372.222 250.204 367.368 248.657 363.039 245.637C358.598 242.539 354.76 238.075 351.21 234.015C346.245 228.337 343.673 218.555 337 215C336.359 219.259 334.135 229.531 329.852 231.397C327.011 232.634 323.024 232 320 232L298 232L261 232C241.702 232 220.542 231.504 209 213L207 213z"/>
</svg>
